<svg width="15" height="15" viewBox="0 0 15 15" fill="none" xmlns="http://www.w3.org/2000/svg">
<circle cx="7.5" cy="7.5" r="7.5" fill="#A40000"/>
<mask id="path-2-outside-1_90_18" maskUnits="userSpaceOnUse" x="2" y="4" width="11" height="8" fill="black">
<rect fill="white" x="2" y="4" width="11" height="8"/>
<path d="M3.161 4.394L4.826 4.403C5.696 4.403 6.461 4.718 7.121 5.348C7.781 5.972 8.111 6.743 8.111 7.661C8.111 8.573 7.787 9.356 7.139 10.01C6.497 10.664 5.717 10.991 4.799 10.991H3.152C2.786 10.991 2.558 10.916 2.468 10.766C2.396 10.64 2.36 10.448 2.36 10.19V5.186C2.36 5.042 2.363 4.937 2.369 4.871C2.381 4.805 2.411 4.727 2.459 4.637C2.543 4.475 2.777 4.394 3.161 4.394ZM4.826 9.398C5.258 9.398 5.648 9.239 5.996 8.921C6.344 8.597 6.518 8.192 6.518 7.706C6.518 7.22 6.347 6.815 6.005 6.491C5.669 6.161 5.273 5.996 4.817 5.996H3.953V9.398H4.826ZM8.15677 10.073C8.00077 9.881 7.92277 9.71 7.92277 9.56C7.92277 9.404 8.05177 9.2 8.30977 8.948C8.45977 8.804 8.61877 8.732 8.78677 8.732C8.95477 8.732 9.18877 8.882 9.48877 9.182C9.57277 9.284 9.69277 9.383 9.84877 9.479C10.0048 9.569 10.1488 9.614 10.2808 9.614C10.8388 9.614 11.1178 9.386 11.1178 8.93C11.1178 8.792 11.0398 8.678 10.8838 8.588C10.7338 8.492 10.5448 8.423 10.3168 8.381C10.0888 8.339 9.84277 8.273 9.57877 8.183C9.31477 8.087 9.06877 7.976 8.84077 7.85C8.61277 7.724 8.42077 7.526 8.26477 7.256C8.11477 6.98 8.03977 6.65 8.03977 6.266C8.03977 5.738 8.23477 5.279 8.62477 4.889C9.02077 4.493 9.55777 4.295 10.2358 4.295C10.5958 4.295 10.9228 4.343 11.2168 4.439C11.5168 4.529 11.7238 4.622 11.8378 4.718L12.0628 4.889C12.2488 5.063 12.3418 5.21 12.3418 5.33C12.3418 5.45 12.2698 5.615 12.1258 5.825C11.9218 6.125 11.7118 6.275 11.4958 6.275C11.3698 6.275 11.2138 6.215 11.0278 6.095C11.0098 6.083 10.9738 6.053 10.9198 6.005C10.8718 5.957 10.8268 5.918 10.7848 5.888C10.6588 5.81 10.4968 5.771 10.2988 5.771C10.1068 5.771 9.94477 5.819 9.81277 5.915C9.68677 6.005 9.62377 6.134 9.62377 6.302C9.62377 6.464 9.69877 6.596 9.84877 6.698C10.0048 6.8 10.1968 6.869 10.4248 6.905C10.6528 6.941 10.9018 6.998 11.1718 7.076C11.4418 7.148 11.6908 7.238 11.9188 7.346C12.1468 7.454 12.3358 7.643 12.4858 7.913C12.6418 8.177 12.7198 8.504 12.7198 8.894C12.7198 9.284 12.6418 9.629 12.4858 9.929C12.3298 10.223 12.1258 10.451 11.8738 10.613C11.3878 10.931 10.8688 11.09 10.3168 11.09C10.0348 11.09 9.76777 11.057 9.51577 10.991C9.26377 10.919 9.05977 10.832 8.90377 10.73C8.58577 10.538 8.36377 10.352 8.23777 10.172L8.15677 10.073Z"/>
</mask>
<path d="M3.161 4.394L4.826 4.403C5.696 4.403 6.461 4.718 7.121 5.348C7.781 5.972 8.111 6.743 8.111 7.661C8.111 8.573 7.787 9.356 7.139 10.01C6.497 10.664 5.717 10.991 4.799 10.991H3.152C2.786 10.991 2.558 10.916 2.468 10.766C2.396 10.64 2.36 10.448 2.36 10.19V5.186C2.36 5.042 2.363 4.937 2.369 4.871C2.381 4.805 2.411 4.727 2.459 4.637C2.543 4.475 2.777 4.394 3.161 4.394ZM4.826 9.398C5.258 9.398 5.648 9.239 5.996 8.921C6.344 8.597 6.518 8.192 6.518 7.706C6.518 7.22 6.347 6.815 6.005 6.491C5.669 6.161 5.273 5.996 4.817 5.996H3.953V9.398H4.826ZM8.15677 10.073C8.00077 9.881 7.92277 9.71 7.92277 9.56C7.92277 9.404 8.05177 9.2 8.30977 8.948C8.45977 8.804 8.61877 8.732 8.78677 8.732C8.95477 8.732 9.18877 8.882 9.48877 9.182C9.57277 9.284 9.69277 9.383 9.84877 9.479C10.0048 9.569 10.1488 9.614 10.2808 9.614C10.8388 9.614 11.1178 9.386 11.1178 8.93C11.1178 8.792 11.0398 8.678 10.8838 8.588C10.7338 8.492 10.5448 8.423 10.3168 8.381C10.0888 8.339 9.84277 8.273 9.57877 8.183C9.31477 8.087 9.06877 7.976 8.84077 7.85C8.61277 7.724 8.42077 7.526 8.26477 7.256C8.11477 6.98 8.03977 6.65 8.03977 6.266C8.03977 5.738 8.23477 5.279 8.62477 4.889C9.02077 4.493 9.55777 4.295 10.2358 4.295C10.5958 4.295 10.9228 4.343 11.2168 4.439C11.5168 4.529 11.7238 4.622 11.8378 4.718L12.0628 4.889C12.2488 5.063 12.3418 5.21 12.3418 5.33C12.3418 5.45 12.2698 5.615 12.1258 5.825C11.9218 6.125 11.7118 6.275 11.4958 6.275C11.3698 6.275 11.2138 6.215 11.0278 6.095C11.0098 6.083 10.9738 6.053 10.9198 6.005C10.8718 5.957 10.8268 5.918 10.7848 5.888C10.6588 5.81 10.4968 5.771 10.2988 5.771C10.1068 5.771 9.94477 5.819 9.81277 5.915C9.68677 6.005 9.62377 6.134 9.62377 6.302C9.62377 6.464 9.69877 6.596 9.84877 6.698C10.0048 6.8 10.1968 6.869 10.4248 6.905C10.6528 6.941 10.9018 6.998 11.1718 7.076C11.4418 7.148 11.6908 7.238 11.9188 7.346C12.1468 7.454 12.3358 7.643 12.4858 7.913C12.6418 8.177 12.7198 8.504 12.7198 8.894C12.7198 9.284 12.6418 9.629 12.4858 9.929C12.3298 10.223 12.1258 10.451 11.8738 10.613C11.3878 10.931 10.8688 11.09 10.3168 11.09C10.0348 11.09 9.76777 11.057 9.51577 10.991C9.26377 10.919 9.05977 10.832 8.90377 10.73C8.58577 10.538 8.36377 10.352 8.23777 10.172L8.15677 10.073Z" fill="#FFFDEC"/>
<path d="M3.161 4.394L3.16154 4.294H3.161V4.394ZM4.826 4.403L4.82546 4.503H4.826V4.403ZM7.121 5.348L7.05195 5.42034L7.0523 5.42066L7.121 5.348ZM7.139 10.01L7.06796 9.93962L7.06764 9.93995L7.139 10.01ZM2.468 10.766L2.38116 10.8156L2.38225 10.8174L2.468 10.766ZM2.369 4.871L2.27022 4.85304L2.26941 4.86195L2.369 4.871ZM2.459 4.637L2.54724 4.68406L2.54778 4.68303L2.459 4.637ZM5.996 8.921L6.06346 8.99482L6.06414 8.99419L5.996 8.921ZM6.005 6.491L5.93492 6.56236L5.93623 6.56359L6.005 6.491ZM3.953 5.996V5.896H3.853V5.996H3.953ZM3.953 9.398H3.853V9.498H3.953V9.398ZM3.161 4.394L3.16046 4.494L4.82546 4.503L4.826 4.403L4.82654 4.303L3.16154 4.294L3.161 4.394ZM4.826 4.403V4.503C5.66893 4.503 6.40955 4.80714 7.05195 5.42034L7.121 5.348L7.19005 5.27566C6.51245 4.62886 5.72307 4.303 4.826 4.303V4.403ZM7.121 5.348L7.0523 5.42066C7.69208 6.02555 8.011 6.77016 8.011 7.661H8.111H8.211C8.211 6.71584 7.86992 5.91845 7.1897 5.27534L7.121 5.348ZM8.111 7.661H8.011C8.011 8.54636 7.69761 9.30414 7.06796 9.93962L7.139 10.01L7.21004 10.0804C7.87639 9.40786 8.211 8.59964 8.211 7.661H8.111ZM7.139 10.01L7.06764 9.93995C6.44448 10.5748 5.69021 10.891 4.799 10.891V10.991V11.091C5.74379 11.091 6.54952 10.7532 7.21036 10.0801L7.139 10.01ZM4.799 10.991V10.891H3.152V10.991V11.091H4.799V10.991ZM3.152 10.991V10.891C2.97465 10.891 2.83784 10.8727 2.73775 10.8398C2.63806 10.807 2.58247 10.7624 2.55375 10.7146L2.468 10.766L2.38225 10.8174C2.44353 10.9196 2.54694 10.9875 2.67525 11.0297C2.80316 11.0718 2.96335 11.091 3.152 11.091V10.991ZM2.468 10.766L2.55482 10.7164C2.49582 10.6131 2.46 10.4423 2.46 10.19H2.36H2.26C2.26 10.4537 2.29618 10.6669 2.38118 10.8156L2.468 10.766ZM2.36 10.19H2.46V5.186H2.36H2.26V10.19H2.36ZM2.36 5.186H2.46C2.46 5.04237 2.46303 4.94123 2.46859 4.88005L2.369 4.871L2.26941 4.86195C2.26297 4.93277 2.26 5.04163 2.26 5.186H2.36ZM2.369 4.871L2.46739 4.88889C2.47684 4.83692 2.50185 4.76916 2.54724 4.68406L2.459 4.637L2.37076 4.58994C2.32015 4.68484 2.28516 4.77308 2.27061 4.85311L2.369 4.871ZM2.459 4.637L2.54778 4.68303C2.5743 4.63188 2.62862 4.58442 2.73021 4.54925C2.83255 4.51382 2.9747 4.494 3.161 4.494V4.394V4.294C2.9633 4.294 2.79645 4.31468 2.66479 4.36025C2.53238 4.40608 2.4277 4.48012 2.37022 4.59097L2.459 4.637ZM4.826 9.398V9.498C5.28533 9.498 5.69885 9.32799 6.06346 8.99482L5.996 8.921L5.92854 8.84718C5.59715 9.15001 5.23067 9.298 4.826 9.298V9.398ZM5.996 8.921L6.06414 8.99419C6.43296 8.6508 6.618 8.21906 6.618 7.706H6.518H6.418C6.418 8.16494 6.25504 8.5432 5.92786 8.84781L5.996 8.921ZM6.518 7.706H6.618C6.618 7.19352 6.43641 6.76195 6.07377 6.4184L6.005 6.491L5.93623 6.56359C6.25759 6.86805 6.418 7.24648 6.418 7.706H6.518ZM6.005 6.491L6.07507 6.41965C5.72106 6.07196 5.30015 5.896 4.817 5.896V5.996V6.096C5.24585 6.096 5.61695 6.25004 5.93493 6.56234L6.005 6.491ZM4.817 5.996V5.896H3.953V5.996V6.096H4.817V5.996ZM3.953 5.996H3.853V9.398H3.953H4.053V5.996H3.953ZM3.953 9.398V9.498H4.826V9.398V9.298H3.953V9.398ZM8.15677 10.073L8.07916 10.1361L8.07938 10.1363L8.15677 10.073ZM8.30977 8.948L8.24052 8.87586L8.2399 8.87646L8.30977 8.948ZM9.48877 9.182L9.56633 9.11813L9.55948 9.11129L9.48877 9.182ZM9.84877 9.479L9.79634 9.5642L9.7988 9.56562L9.84877 9.479ZM10.8838 8.588L10.8298 8.67232L10.8338 8.67462L10.8838 8.588ZM10.3168 8.381L10.2987 8.47935V8.47935L10.3168 8.381ZM9.57877 8.183L9.54459 8.277L9.54651 8.27765L9.57877 8.183ZM8.26477 7.256L8.17688 7.30377L8.17819 7.30603L8.26477 7.256ZM8.62477 4.889L8.69548 4.95971V4.95971L8.62477 4.889ZM11.2168 4.439L11.1857 4.53409L11.188 4.53478L11.2168 4.439ZM11.8378 4.718L11.7733 4.79459L11.7773 4.79762L11.8378 4.718ZM12.0628 4.889L12.1314 4.81559L12.1233 4.80938L12.0628 4.889ZM12.1258 5.825L12.0433 5.76845L12.0431 5.76877L12.1258 5.825ZM11.0278 6.095L10.9723 6.17821L10.9736 6.17903L11.0278 6.095ZM10.9198 6.005L10.8489 6.07583L10.8533 6.07974L10.9198 6.005ZM10.7848 5.888L10.843 5.80645L10.8374 5.80297L10.7848 5.888ZM9.81277 5.915L9.8709 5.99638L9.87159 5.99587L9.81277 5.915ZM9.84877 6.698L9.79253 6.78071L9.79405 6.7817L9.84877 6.698ZM10.4248 6.905L10.4092 7.00378V7.00378L10.4248 6.905ZM11.1718 7.076L11.144 7.17209L11.146 7.17262L11.1718 7.076ZM11.9188 7.346L11.876 7.43637V7.43637L11.9188 7.346ZM12.4858 7.913L12.3983 7.96158L12.3997 7.96387L12.4858 7.913ZM12.4858 9.929L12.5741 9.97587L12.5745 9.97514L12.4858 9.929ZM11.8738 10.613L11.8197 10.5289L11.819 10.5293L11.8738 10.613ZM9.51577 10.991L9.48829 11.0872L9.49044 11.0877L9.51577 10.991ZM8.90377 10.73L8.95853 10.6462L8.95546 10.6444L8.90377 10.73ZM8.23777 10.172L8.31993 10.1145L8.31517 10.1087L8.23777 10.172ZM8.15677 10.073L8.23439 10.0099C8.08419 9.82508 8.02277 9.67627 8.02277 9.56H7.92277H7.82277C7.82277 9.74373 7.91736 9.93692 8.07916 10.1361L8.15677 10.073ZM7.92277 9.56H8.02277C8.02277 9.50862 8.04455 9.43752 8.10404 9.34345C8.16288 9.2504 8.25377 9.14249 8.37965 9.01954L8.30977 8.948L8.2399 8.87646C8.10778 9.00551 8.00517 9.1256 7.935 9.23655C7.86549 9.34648 7.82277 9.45538 7.82277 9.56H7.92277ZM8.30977 8.948L8.37903 9.02014C8.51507 8.88954 8.6504 8.832 8.78677 8.832V8.732V8.632C8.58715 8.632 8.40448 8.71846 8.24052 8.87586L8.30977 8.948ZM8.78677 8.732V8.832C8.84286 8.832 8.92395 8.85794 9.03431 8.92869C9.14298 8.99835 9.27079 9.10543 9.41806 9.25271L9.48877 9.182L9.55948 9.11129C9.40676 8.95857 9.26757 8.84065 9.14224 8.76031C9.0186 8.68106 8.89868 8.632 8.78677 8.632V8.732ZM9.48877 9.182L9.41158 9.24557C9.50472 9.35867 9.63432 9.46445 9.79636 9.56417L9.84877 9.479L9.90118 9.39383C9.75122 9.30155 9.64082 9.20933 9.56597 9.11843L9.48877 9.182ZM9.84877 9.479L9.7988 9.56562C9.96469 9.66132 10.126 9.714 10.2808 9.714V9.614V9.514C10.1716 9.514 10.0449 9.47668 9.89875 9.39238L9.84877 9.479ZM10.2808 9.614V9.714C10.5708 9.714 10.807 9.65515 10.9718 9.52043C11.1405 9.38256 11.2178 9.17934 11.2178 8.93H11.1178H11.0178C11.0178 9.13666 10.9555 9.27544 10.8452 9.36557C10.7311 9.45885 10.5487 9.514 10.2808 9.514V9.614ZM11.1178 8.93H11.2178C11.2178 8.7453 11.1099 8.60299 10.9337 8.50138L10.8838 8.588L10.8338 8.67462C10.9697 8.75301 11.0178 8.8387 11.0178 8.93H11.1178ZM10.8838 8.588L10.9377 8.50377C10.774 8.39904 10.572 8.32633 10.3349 8.28265L10.3168 8.381L10.2987 8.47935C10.5176 8.51967 10.6935 8.58496 10.8299 8.67223L10.8838 8.588ZM10.3168 8.381L10.3349 8.28265C10.1125 8.2417 9.87132 8.17708 9.61104 8.08835L9.57877 8.183L9.54651 8.27765C9.81423 8.36892 10.065 8.43631 10.2987 8.47935L10.3168 8.381ZM9.57877 8.183L9.61295 8.08902C9.35346 7.99466 9.11225 7.88577 8.88914 7.76248L8.84077 7.85L8.79241 7.93752C9.0253 8.06623 9.27608 8.17934 9.5446 8.27698L9.57877 8.183ZM8.84077 7.85L8.88914 7.76248C8.67993 7.64686 8.50007 7.46335 8.35136 7.20597L8.26477 7.256L8.17819 7.30603C8.34148 7.58865 8.54561 7.80114 8.79241 7.93752L8.84077 7.85ZM8.26477 7.256L8.35264 7.20825C8.21219 6.94982 8.13977 6.63699 8.13977 6.266H8.03977H7.93977C7.93977 6.66301 8.01736 7.01018 8.17691 7.30375L8.26477 7.256ZM8.03977 6.266H8.13977C8.13977 5.76581 8.32331 5.33189 8.69548 4.95971L8.62477 4.889L8.55406 4.81829C8.14624 5.22611 7.93977 5.71019 7.93977 6.266H8.03977ZM8.62477 4.889L8.69548 4.95971C9.0689 4.5863 9.57833 4.395 10.2358 4.395V4.295V4.195C9.53721 4.195 8.97265 4.3997 8.55406 4.81829L8.62477 4.889ZM10.2358 4.295V4.395C10.5869 4.395 10.9032 4.44182 11.1857 4.53406L11.2168 4.439L11.2478 4.34394C10.9423 4.24418 10.6046 4.195 10.2358 4.195V4.295ZM11.2168 4.439L11.188 4.53478C11.4862 4.62424 11.6761 4.71258 11.7734 4.79449L11.8378 4.718L11.9022 4.64151C11.7715 4.53142 11.5473 4.43376 11.2455 4.34322L11.2168 4.439ZM11.8378 4.718L11.7773 4.79762L12.0023 4.96862L12.0628 4.889L12.1233 4.80938L11.8983 4.63838L11.8378 4.718ZM12.0628 4.889L11.9945 4.96203C12.0838 5.04564 12.1471 5.11938 12.1875 5.18321C12.2282 5.24752 12.2418 5.29562 12.2418 5.33H12.3418H12.4418C12.4418 5.24438 12.4088 5.15898 12.3565 5.07629C12.3039 4.99312 12.2277 4.90636 12.1311 4.81597L12.0628 4.889ZM12.3418 5.33H12.2418C12.2418 5.41713 12.1862 5.56007 12.0433 5.76845L12.1258 5.825L12.2082 5.88155C12.3534 5.66993 12.4418 5.48287 12.4418 5.33H12.3418ZM12.1258 5.825L12.0431 5.76877C11.845 6.06008 11.6611 6.175 11.4958 6.175V6.275V6.375C11.7624 6.375 11.9986 6.18992 12.2085 5.88123L12.1258 5.825ZM11.4958 6.275V6.175C11.3987 6.175 11.2625 6.12745 11.082 6.01097L11.0278 6.095L10.9736 6.17903C11.165 6.30255 11.3409 6.375 11.4958 6.375V6.275ZM11.0278 6.095L11.0832 6.0118C11.0721 6.00438 11.0415 5.9794 10.9862 5.93026L10.9198 6.005L10.8533 6.07974C10.906 6.1266 10.9474 6.16161 10.9723 6.1782L11.0278 6.095ZM10.9198 6.005L10.9905 5.93429C10.9397 5.88353 10.8905 5.84064 10.8429 5.80663L10.7848 5.888L10.7267 5.96937C10.763 5.99536 10.8038 6.03047 10.8491 6.07571L10.9198 6.005ZM10.7848 5.888L10.8374 5.80297C10.6911 5.71242 10.5093 5.671 10.2988 5.671V5.771V5.871C10.4843 5.871 10.6264 5.90758 10.7321 5.97303L10.7848 5.888ZM10.2988 5.771V5.671C10.0895 5.671 9.90591 5.72361 9.75396 5.83413L9.81277 5.915L9.87159 5.99587C9.98363 5.91439 10.1241 5.871 10.2988 5.871V5.771ZM9.81277 5.915L9.75465 5.83363C9.59986 5.94419 9.52377 6.10491 9.52377 6.302H9.62377H9.72377C9.72377 6.16309 9.77368 6.06581 9.8709 5.99637L9.81277 5.915ZM9.62377 6.302H9.52377C9.52377 6.50149 9.619 6.66268 9.79254 6.78069L9.84877 6.698L9.905 6.61531C9.77855 6.52932 9.72377 6.42651 9.72377 6.302H9.62377ZM9.84877 6.698L9.79405 6.7817C9.96435 6.89305 10.1705 6.96608 10.4092 7.00378L10.4248 6.905L10.4404 6.80622C10.2231 6.77192 10.0452 6.70695 9.9035 6.6143L9.84877 6.698ZM10.4248 6.905L10.4092 7.00378C10.6323 7.03901 10.8772 7.09499 11.144 7.17207L11.1718 7.076L11.1995 6.97993C10.9264 6.90101 10.6732 6.84299 10.4404 6.80622L10.4248 6.905ZM11.1718 7.076L11.146 7.17262C11.4108 7.24323 11.654 7.33123 11.876 7.43637L11.9188 7.346L11.9616 7.25563C11.7276 7.14477 11.4728 7.05277 11.1975 6.97938L11.1718 7.076ZM11.9188 7.346L11.876 7.43637C12.0812 7.53359 12.2562 7.70566 12.3984 7.96156L12.4858 7.913L12.5732 7.86444C12.4154 7.58034 12.2123 7.37441 11.9616 7.25563L11.9188 7.346ZM12.4858 7.913L12.3997 7.96387C12.5444 8.20881 12.6198 8.51711 12.6198 8.894H12.7198H12.8198C12.8198 8.49089 12.7391 8.14519 12.5719 7.86213L12.4858 7.913ZM12.7198 8.894H12.6198C12.6198 9.27041 12.5446 9.59916 12.3971 9.88286L12.4858 9.929L12.5745 9.97514C12.739 9.65884 12.8198 9.29759 12.8198 8.894H12.7198ZM12.4858 9.929L12.3974 9.88213C12.2486 10.1627 12.0557 10.3772 11.8197 10.5289L11.8738 10.613L11.9278 10.6971C12.1958 10.5248 12.411 10.2833 12.5741 9.97587L12.4858 9.929ZM11.8738 10.613L11.819 10.5293C11.3484 10.8373 10.8483 10.99 10.3168 10.99V11.09V11.19C10.8893 11.19 11.4271 11.0247 11.9285 10.6967L11.8738 10.613ZM10.3168 11.09V10.99C10.0426 10.99 9.78419 10.9579 9.54111 10.8943L9.51577 10.991L9.49044 11.0877C9.75136 11.1561 10.0269 11.19 10.3168 11.19V11.09ZM9.51577 10.991L9.54325 10.8948C9.29731 10.8246 9.10345 10.7411 8.9585 10.6463L8.90377 10.73L8.84905 10.8137C9.0161 10.9229 9.23024 11.0134 9.4883 11.0872L9.51577 10.991ZM8.90377 10.73L8.95546 10.6444C8.64226 10.4553 8.43401 10.278 8.3197 10.1147L8.23777 10.172L8.15585 10.2293C8.29354 10.426 8.52928 10.6207 8.85209 10.8156L8.90377 10.73ZM8.23777 10.172L8.31517 10.1087L8.23417 10.0097L8.15677 10.073L8.07938 10.1363L8.16038 10.2353L8.23777 10.172Z" fill="#840000" mask="url(#path-2-outside-1_90_18)"/>
</svg>
